<?xml version="1.0" encoding="utf-8"?>
<!-- Generator: Adobe Illustrator 17.0.0, SVG Export Plug-In . SVG Version: 6.00 Build 0)  -->
<!DOCTYPE svg PUBLIC "-//W3C//DTD SVG 1.1//EN" "http://www.w3.org/Graphics/SVG/1.1/DTD/svg11.dtd">
<svg version="1.1" id="Layer_1" xmlns="http://www.w3.org/2000/svg" xmlns:xlink="http://www.w3.org/1999/xlink" x="0px" y="0px"
	 width="118.167px" height="105.342px" viewBox="0 0 118.167 105.342" enable-background="new 0 0 118.167 105.342"
	 xml:space="preserve">
<path fill="#FF9F8F" stroke="#F16A43" stroke-width="6" stroke-linecap="round" stroke-linejoin="round" stroke-miterlimit="10" d="
	M100.692,78.217H59.751c-0.532,0-1.048,0.177-1.468,0.503L32.742,99.299c-1.572,1.221-3.861,0.1-3.861-1.891l0-16.798
	c0-1.322-1.072-2.393-2.393-2.393h-9.012c-6.413,0-11.612-5.199-11.612-11.612V5.536h106.44v61.07
	C112.304,73.019,107.105,78.217,100.692,78.217z"/>
<g>
	<g>
		<g>
			
				<line fill="#FFABB9" stroke="#F16A43" stroke-width="6" stroke-linecap="round" stroke-linejoin="round" stroke-miterlimit="10" x1="33.159" y1="19.727" x2="43.058" y2="29.627"/>
			
				<line fill="#FFABB9" stroke="#F16A43" stroke-width="6" stroke-linecap="round" stroke-linejoin="round" stroke-miterlimit="10" x1="43.058" y1="19.727" x2="33.159" y2="29.627"/>
		</g>
		<g>
			
				<line fill="#FFABB9" stroke="#F16A43" stroke-width="6" stroke-linecap="round" stroke-linejoin="round" stroke-miterlimit="10" x1="74.159" y1="19.727" x2="84.058" y2="29.627"/>
			
				<line fill="#FFABB9" stroke="#F16A43" stroke-width="6" stroke-linecap="round" stroke-linejoin="round" stroke-miterlimit="10" x1="84.058" y1="19.727" x2="74.159" y2="29.627"/>
		</g>
	</g>
	<g>
		
			<path fill="#FF9F8F" stroke="#F16A43" stroke-width="6" stroke-linecap="round" stroke-linejoin="round" stroke-miterlimit="10" d="
			M78.634,49.124v8.646c0,2.011-2.418,3.641-5.4,3.641h0c-2.982,0-5.4-1.63-5.4-3.641v-8.646"/>
		
			<line fill="#FFABB9" stroke="#F16A43" stroke-width="6" stroke-linecap="round" stroke-linejoin="round" stroke-miterlimit="10" x1="36.083" y1="48.671" x2="82.083" y2="48.671"/>
	</g>
</g>
</svg>
