<?xml version="1.0" encoding="utf-8"?>
<!-- Generator: Adobe Illustrator 17.0.0, SVG Export Plug-In . SVG Version: 6.00 Build 0)  -->
<!DOCTYPE svg PUBLIC "-//W3C//DTD SVG 1.1//EN" "http://www.w3.org/Graphics/SVG/1.1/DTD/svg11.dtd">
<svg version="1.1" id="Layer_1" xmlns="http://www.w3.org/2000/svg" xmlns:xlink="http://www.w3.org/1999/xlink" x="0px" y="0px"
	 width="308.338px" height="242px" viewBox="0 0 308.338 242" enable-background="new 0 0 308.338 242" xml:space="preserve">
<g>
	<path fill="#2871A3" d="M266.272,95.295c0,7.887-6.394,14.281-14.281,14.281H58.726c-7.887,0-14.281-6.394-14.281-14.281V20.083
		c0-7.887,6.394-14.281,14.281-14.281h39.153l24.158,19.993h129.954c7.887,0,14.281,6.394,14.281,14.281V95.295z"/>
	<rect x="37.067" y="34.84" fill="#D8D8D8" width="235.869" height="78.067"/>
	<rect x="29.451" y="56.265" fill="#EBEEEE" width="251.815" height="78.067"/>
	<g>
		<path fill="#44A1EF" d="M276.071,223.542c-1.579,6.815-8.259,12.45-14.993,12.656c-71.273,0-142.546,0-213.819,0
			c-6.733-0.206-13.413-5.841-14.992-12.656c-7.876-44.295-16.13-88.591-24.763-132.886C6.499,83.849,12.482,78.214,20.922,78
			c88.831,0,177.663,0,266.495,0c8.441,0.214,14.422,5.849,13.418,12.656C292.201,134.951,283.947,179.246,276.071,223.542z"/>
	</g>
</g>
</svg>
